# xmcd
#
# Track frame offsets:
#	150
#	12250
#	23846
#	35701
#	48047
#	57841
#	69471
#	84106
#	95769
#	108988
#	120657
#	129137
#	140369
#	154513
#	165566
#	176813
#	189216
#	200996
#
# Disc length: 2817 seconds
#
# Revision: 2
# Processed by: cddbd v1.5.2PL0 Copyright (c) Steve Scherf et al.
# Submitted via: EasyCDDAExtractor 16.0.8.2
#
DISCID=e60aff12
DTITLE=Συλλογικός δίσκος - Όταν τα σλόου τα έλεγαν μπλουζ 3
DYEAR=2011
DGENRE=Ξένη σλόου
TTITLE0=Elvis Presely - Love me tender
TTITLE1=Paul Anka - Lonely boy
TTITLE2=The Clovers - Blue velvet
TTITLE3=Dean Martin - Return to me
TTITLE4=Clyde Mc Phatter - Treasure of love
TTITLE5=The Platters - Heaven on earth
TTITLE6=Andy Williams - Unchained melody
TTITLE7=Teresa Brewer - A tear fell
TTITLE8=Etta James - All I could do was cry
TTITLE9=The Drifters - Soldier of fortune
TTITLE10=Ricky Nelson - Again
TTITLE11=Julie London - I'm in the mood for love
TTITLE12=Nat King Cole - Impossible
TTITLE13=Frankie Lymon-The Teenagers - Creation of love
TTITLE14=Johnny Mathis - The twelfth of never
TTITLE15=Roy Orbinson - Here comes that song again
TTITLE16=The Platters - Reflections in the water
TTITLE17=The Moonglows - Please, send me someone to love
EXTD=CD 3
EXTT0=
EXTT1=
EXTT2=
EXTT3=
EXTT4=
EXTT5=
EXTT6=
EXTT7=
EXTT8=
EXTT9=
EXTT10=
EXTT11=
EXTT12=
EXTT13=
EXTT14=
EXTT15=
EXTT16=
EXTT17=
PLAYORDER=
